<svg version="1.1" xmlns="http://www.w3.org/2000/svg" xmlns:xlink="http://www.w3.org/1999/xlink" width="523" height="678"><desc>participant%20Partner%0Aparticipant%20Moank%0A%0A%0APartner-%3EMoank%3A%20POST%3A%20%2Fcreditor%0Aactivate%20Moank%0Anote%20over%20Partner%2C%20Moank%3A%20The%20partner%20request%20onboarding%20of%20a%20new%20creditor%0Arbox%20over%20Moank%3A%20Process%20request%0AMoank--%3EPartner%3A%20Creditor%20data%0Anote%20over%20Moank%2CPartner%3A%20The%20creditor%20data%20are%20not%20including%20the%20business%20terms%0Adeactivate%20Moank%0A%0Arbox%20over%20Moank%3A%20Manual%20process%5Cnto%20set%20the%20terms%0A%0APartner-%3EMoank%3A%20Get%3A%20%2Fcreditor%2F%3Aid%0Aactivate%20Moank%0AMoank--%3EPartner%3A%20Creditor%20data%0Anote%20over%20Moank%2CPartner%3A%20The%20creditor%20data%20including%20the%20business%20terms%0Adeactivate%20Moank%0A%0A</desc><defs/><g><g/><g/><g/><g/><g/><g/><g/><g/><g/><g/><g><rect fill="white" stroke="none" x="0" y="0" width="523" height="678"/></g><g/><g><path fill="none" stroke="black" paint-order="fill stroke markers" d=" M 51.9201440361289 59.284222437999986 L 51.9201440361289 678.514082918" stroke-miterlimit="10" stroke-width="1.4659797833333332" stroke-dasharray="13.532121076923076,5.863919133333333"/><path fill="none" stroke="black" paint-order="fill stroke markers" d=" M 427.8924358978477 59.284222437999986 L 427.8924358978477 678.514082918" stroke-miterlimit="10" stroke-width="1.4659797833333332" stroke-dasharray="13.532121076923076,5.863919133333333"/></g><g><path fill="none" stroke="none"/><g><path fill="white" stroke="black" paint-order="fill stroke markers" d=" M 8.795878699999996 11.786477457999997 L 95.0444093722578 11.786477457999997 L 95.0444093722578 59.284222437999986 L 8.795878699999996 59.284222437999986 L 8.795878699999996 11.786477457999997 Z" stroke-miterlimit="10" stroke-width="2.814681184" stroke-dasharray=""/></g><g><g/><text fill="black" stroke="none" font-family="sans-serif" font-size="11pt" font-style="normal" font-weight="normal" text-decoration="normal" x="27.882935478999997" y="41.692465037999995" text-anchor="start" dominant-baseline="alphabetic" xml:space="preserve">Partner</text></g><path fill="none" stroke="none"/><g><path fill="white" stroke="black" paint-order="fill stroke markers" d=" M 386.80466958515626 11.786477457999997 L 468.98020221053906 11.786477457999997 L 468.98020221053906 59.284222437999986 L 386.80466958515626 59.284222437999986 L 386.80466958515626 11.786477457999997 Z" stroke-miterlimit="10" stroke-width="2.814681184" stroke-dasharray=""/></g><g><g/><text fill="black" stroke="none" font-family="sans-serif" font-size="11pt" font-style="normal" font-weight="normal" text-decoration="normal" x="405.8917263641563" y="41.692465037999995" text-anchor="start" dominant-baseline="alphabetic" xml:space="preserve">Moank</text></g></g><g><path fill="white" stroke="black" paint-order="fill stroke markers" d=" M 419.0965571978477 117.33702185799999 L 436.6883145978477 117.33702185799999 L 436.6883145978477 367.13997693799996 L 419.0965571978477 367.13997693799996 L 419.0965571978477 117.33702185799999" stroke-miterlimit="10" stroke-width="1.4659797833333332" stroke-dasharray=""/><path fill="white" stroke="black" paint-order="fill stroke markers" d=" M 419.0965571978477 500.83733317799994 L 436.6883145978477 500.83733317799994 L 436.6883145978477 616.942932018 L 419.0965571978477 616.942932018 L 419.0965571978477 500.83733317799994" stroke-miterlimit="10" stroke-width="1.4659797833333332" stroke-dasharray=""/><g><g><rect fill="white" stroke="none" x="183.17382437271092" y="94.46773723799998" width="104.66905248855468" height="22.86928462"/></g><text fill="black" stroke="none" font-family="sans-serif" font-size="11pt" font-style="normal" font-weight="normal" text-decoration="normal" x="185.81258798271094" y="110.30031889799997" text-anchor="start" dominant-baseline="alphabetic" xml:space="preserve">POST: /creditor</text></g><g><path fill="none" stroke="black" paint-order="fill stroke markers" d=" M 51.9201440361289 117.33702185799999 L 404.61267693851437 117.33702185799999" stroke-miterlimit="10" stroke-width="1.4659797833333332" stroke-dasharray=""/><g transform="translate(419.0965571978477,117.33702185799999) translate(-419.0965571978477,-117.33702185799999)"><path fill="black" stroke="none" paint-order="stroke fill markers" d=" M 404.43675936451433 110.00712294133332 L 419.0965571978477 117.33702185799999 L 404.43675936451433 124.66692077466665 Z"/></g></g><path fill="white" stroke="black" paint-order="fill stroke markers" d=" M 36.0875623761289 143.72465795799997 L 427.89243589784763 143.72465795799997 L 443.72501755784765 159.55723961799995 L 443.72501755784765 184.18569997799997 L 36.0875623761289 184.18569997799997 L 36.0875623761289 143.72465795799997 M 427.89243589784763 143.72465795799997 L 427.89243589784763 159.55723961799995 L 443.72501755784765 159.55723961799995" stroke-miterlimit="10" stroke-width="1.4659797833333332" stroke-dasharray=""/><g><text fill="black" stroke="none" font-family="sans-serif" font-size="11pt" font-style="normal" font-weight="normal" text-decoration="normal" x="80.58637419550388" y="168.353118318" text-anchor="start" dominant-baseline="alphabetic" xml:space="preserve">The partner request onboarding of a new creditor</text></g><path fill="white" stroke="black" paint-order="fill stroke markers" d=" M 350.3005127082578 226.40591773799994 L 350.3005127082578 226.40591773799994 A 15.832581659999999 15.832581659999999 0 0 1 366.13309436825784 210.57333607799995 L 489.6517774274375 210.57333607799995 L 489.6517774274375 210.57333607799995 A 15.832581659999999 15.832581659999999 0 0 1 505.4843590874375 226.40591773799994 L 505.4843590874375 235.20179643799997 L 505.4843590874375 235.20179643799997 A 15.832581659999999 15.832581659999999 0 0 1 489.6517774274375 251.03437809799996 L 366.13309436825784 251.03437809799996 L 366.13309436825784 251.03437809799996 A 15.832581659999999 15.832581659999999 0 0 1 350.3005127082578 235.20179643799997 L 350.3005127082578 226.40591773799994" stroke-miterlimit="10" stroke-width="1.4659797833333332" stroke-dasharray=""/><g><text fill="black" stroke="none" font-family="sans-serif" font-size="11pt" font-style="normal" font-weight="normal" text-decoration="normal" x="374.92897306825785" y="235.201796438" text-anchor="start" dominant-baseline="alphabetic" xml:space="preserve">Process request</text></g><g><g><rect fill="white" stroke="none" x="190.49666220230077" y="277.422014198" width="90.023376829375" height="22.86928462"/></g><text fill="black" stroke="none" font-family="sans-serif" font-size="11pt" font-style="normal" font-weight="normal" text-decoration="normal" x="193.13542581230078" y="293.254595858" text-anchor="start" dominant-baseline="alphabetic" xml:space="preserve">Creditor data</text></g><g><path fill="none" stroke="black" paint-order="fill stroke markers" d=" M 419.0965571978477 300.291298818 L 66.40402429546224 300.291298818" stroke-miterlimit="10" stroke-width="1.4659797833333332" stroke-dasharray="7.0367029599999995"/><g transform="translate(51.9201440361289,300.291298818) translate(-51.9201440361289,-300.291298818)"><path fill="black" stroke="none" paint-order="stroke fill markers" d=" M 66.57994186946223 292.9613999013333 L 51.9201440361289 300.291298818 L 66.57994186946223 307.6211977346666 Z"/></g></g><path fill="white" stroke="black" paint-order="fill stroke markers" d=" M 36.0875623761289 326.678934918 L 427.89243589784763 326.678934918 L 443.72501755784765 342.511516578 L 443.72501755784765 367.13997693799996 L 36.0875623761289 367.13997693799996 L 36.0875623761289 326.678934918 M 427.89243589784763 326.678934918 L 427.89243589784763 342.511516578 L 443.72501755784765 342.511516578" stroke-miterlimit="10" stroke-width="1.4659797833333332" stroke-dasharray=""/><g><text fill="black" stroke="none" font-family="sans-serif" font-size="11pt" font-style="normal" font-weight="normal" text-decoration="normal" x="65.11396208612888" y="351.30739527799994" text-anchor="start" dominant-baseline="alphabetic" xml:space="preserve">The creditor data are not including the business terms</text></g><path fill="white" stroke="black" paint-order="fill stroke markers" d=" M 351.52097932202736 409.360194698 L 351.52097932202736 409.360194698 A 15.832581659999999 15.832581659999999 0 0 1 367.3535609820274 393.52761303799997 L 488.43131081366795 393.52761303799997 L 488.43131081366795 393.52761303799997 A 15.832581659999999 15.832581659999999 0 0 1 504.26389247366797 409.360194698 L 504.26389247366797 435.74783079799994 L 504.26389247366797 435.74783079799994 A 15.832581659999999 15.832581659999999 0 0 1 488.43131081366795 451.58041245799996 L 367.3535609820274 451.58041245799996 L 367.3535609820274 451.58041245799996 A 15.832581659999999 15.832581659999999 0 0 1 351.52097932202736 435.74783079799994 L 351.52097932202736 409.360194698" stroke-miterlimit="10" stroke-width="1.4659797833333332" stroke-dasharray=""/><g><text fill="black" stroke="none" font-family="sans-serif" font-size="11pt" font-style="normal" font-weight="normal" text-decoration="normal" x="376.1494396820274" y="418.15607339799993" text-anchor="start" dominant-baseline="alphabetic" xml:space="preserve">Manual process</text><text fill="black" stroke="none" font-family="sans-serif" font-size="11pt" font-style="normal" font-weight="normal" text-decoration="normal" x="376.1494396820274" y="435.74783079799994" text-anchor="start" dominant-baseline="alphabetic" xml:space="preserve">to set the terms</text></g><g><g><rect fill="white" stroke="none" x="180.72572714370702" y="477.96804855799996" width="109.5652469465625" height="22.86928462"/></g><text fill="black" stroke="none" font-family="sans-serif" font-size="11pt" font-style="normal" font-weight="normal" text-decoration="normal" x="183.36449075370703" y="493.800630218" text-anchor="start" dominant-baseline="alphabetic" xml:space="preserve">Get: /creditor/:id</text></g><g><path fill="none" stroke="black" paint-order="fill stroke markers" d=" M 51.9201440361289 500.83733317799994 L 404.61267693851437 500.83733317799994" stroke-miterlimit="10" stroke-width="1.4659797833333332" stroke-dasharray=""/><g transform="translate(419.0965571978477,500.83733317799994) translate(-419.0965571978477,-500.83733317799994)"><path fill="black" stroke="none" paint-order="stroke fill markers" d=" M 404.43675936451433 493.5074342613333 L 419.0965571978477 500.83733317799994 L 404.43675936451433 508.1672320946666 Z"/></g></g><g><g><rect fill="white" stroke="none" x="190.49666220230077" y="527.2249692779999" width="90.023376829375" height="22.86928462"/></g><text fill="black" stroke="none" font-family="sans-serif" font-size="11pt" font-style="normal" font-weight="normal" text-decoration="normal" x="193.13542581230078" y="543.0575509379998" text-anchor="start" dominant-baseline="alphabetic" xml:space="preserve">Creditor data</text></g><g><path fill="none" stroke="black" paint-order="fill stroke markers" d=" M 419.0965571978477 550.0942538979999 L 66.40402429546224 550.0942538979999" stroke-miterlimit="10" stroke-width="1.4659797833333332" stroke-dasharray="7.0367029599999995"/><g transform="translate(51.9201440361289,550.0942538979999) translate(-51.9201440361289,-550.0942538979999)"><path fill="black" stroke="none" paint-order="stroke fill markers" d=" M 66.57994186946223 542.7643549813332 L 51.9201440361289 550.0942538979999 L 66.57994186946223 557.4241528146666 Z"/></g></g><path fill="white" stroke="black" paint-order="fill stroke markers" d=" M 36.0875623761289 576.4818899979999 L 427.89243589784763 576.4818899979999 L 443.72501755784765 592.3144716579999 L 443.72501755784765 616.942932018 L 36.0875623761289 616.942932018 L 36.0875623761289 576.4818899979999 M 427.89243589784763 576.4818899979999 L 427.89243589784763 592.3144716579999 L 443.72501755784765 592.3144716579999" stroke-miterlimit="10" stroke-width="1.4659797833333332" stroke-dasharray=""/><g><text fill="black" stroke="none" font-family="sans-serif" font-size="11pt" font-style="normal" font-weight="normal" text-decoration="normal" x="89.97077360956638" y="601.110350358" text-anchor="start" dominant-baseline="alphabetic" xml:space="preserve">The creditor data including the business terms</text></g></g><g/><g/></g></svg>