<svg version="1.1" xmlns="http://www.w3.org/2000/svg" xmlns:xlink="http://www.w3.org/1999/xlink" width="788" height="1797"><desc>participant%20Partner%0Aparticipant%20Moank%0A%0Agroup%20Creditor%20onboarding%0APartner-%3EMoank%3A%20POST%3A%20%2Fcreditor%0Aactivate%20Moank%0Anote%20over%20Partner%2C%20Moank%3A%20The%20partner%20request%20onboarding%20of%20a%20new%20creditor%0Arbox%20over%20Moank%3A%20Process%20request%0AMoank--%3EPartner%3A%20Creditor%20data%0Anote%20over%20Moank%2CPartner%3A%20The%20creditor%20data%20are%20not%20including%20the%20business%20terms%0Adeactivate%20Moank%0A%0Arbox%20over%20Moank%3A%20Manual%20process%5Cnto%20set%20the%20terms%0A%0APartner-%3EMoank%3A%20Get%3A%20%2Fcreditor%2F%3Aid%0Aactivate%20Moank%0AMoank--%3EPartner%3A%20Creditor%20data%0Anote%20over%20Moank%2CPartner%3A%20The%20creditor%20data%20including%20the%20business%20terms%0Adeactivate%20Moank%0Aend%0A%0Agroup%20Debtor%20onboarding%0APartner-%3EMoank%3A%20POST%3A%20%2Fdecision%0Aactivate%20Moank%0Anote%20over%20Partner%2C%20Moank%3A%20The%20partner%20request%20a%20credit%20decision%20to%20Moank%0Arbox%20over%20Moank%3A%20Process%20request%0AMoank--%3EPartner%3A%20Decision%20data%0Anote%20over%20Moank%2CPartner%3A%20The%20decision%20data%20inlcuding%20the%20decision%20status%20and%20the%20terms%20from%20Moank%0Adeactivate%20Moank%0A%0APartner-%3EMoank%3A%20POST%3A%20%2Faccount%0Aactivate%20Moank%0Anote%20over%20Partner%2C%20Moank%3A%20The%20partner%20request%20to%20convert%20a%20previous%20granted%20decision%20in%20an%20account%0Arbox%20over%20Moank%3A%20Process%20request%0AMoank--%3EPartner%3A%20Account%20data%0Anote%20over%20Moank%2CPartner%3AThe%20account%20data%20inlcuding%20the%20business%20terms%20Moank%20set%20for%20the%20debtor%20and%20their%20usage%0Adeactivate%20Moank%0Aend%20%0A%0Agroup%20Transfer%20claim%0APartner-%3EMoank%3A%20POST%3A%20%2Fclaim%0Aactivate%20Moank%0Anote%20over%20Partner%2C%20Moank%3A%20The%20partner%20request%20a%20transfer%20of%20claim%20for%20a%20debtor%20based%20on%20its%20account%20terms%0Arbox%20over%20Moank%3A%20Process%20request%0AMoank--%3EPartner%3A%20Claim%20data%0Anote%20over%20Moank%2CPartner%3A%20The%20claim%20data%20processed%20by%20Moank%0Adeactivate%20Moank%0Aend%0A</desc><defs/><g><g/><g/><g/><g/><g/><g/><g/><g/><g/><g/><g/><g/><g/><g/><g/><g/><g/><g/><g/><g/><g/><g/><g/><g/><g/><g><rect fill="white" stroke="none" x="0" y="0" width="788" height="1797"/></g><g/><g><path fill="none" stroke="black" paint-order="fill stroke markers" d=" M 79.1629083 59.284222437999986 L 79.1629083 1797.3498535579993" stroke-miterlimit="10" stroke-width="1.4659797833333332" stroke-dasharray="13.532121076923076,5.863919133333333"/><path fill="none" stroke="black" paint-order="fill stroke markers" d=" M 676.00122799375 59.284222437999986 L 676.00122799375 1797.3498535579993" stroke-miterlimit="10" stroke-width="1.4659797833333332" stroke-dasharray="13.532121076923076,5.863919133333333"/></g><g><path fill="none" stroke="none"/><g><path fill="white" stroke="black" paint-order="fill stroke markers" d=" M 36.03864296387109 11.786477457999997 L 122.2871736361289 11.786477457999997 L 122.2871736361289 59.284222437999986 L 36.03864296387109 59.284222437999986 L 36.03864296387109 11.786477457999997 Z" stroke-miterlimit="10" stroke-width="2.814681184" stroke-dasharray=""/></g><g><g/><text fill="black" stroke="none" font-family="sans-serif" font-size="11pt" font-style="normal" font-weight="normal" text-decoration="normal" x="55.12569974287109" y="41.692465037999995" text-anchor="start" dominant-baseline="alphabetic" xml:space="preserve">Partner</text></g><path fill="none" stroke="none"/><g><path fill="white" stroke="black" paint-order="fill stroke markers" d=" M 634.9134616810586 11.786477457999997 L 717.0889943064415 11.786477457999997 L 717.0889943064415 59.284222437999986 L 634.9134616810586 59.284222437999986 L 634.9134616810586 11.786477457999997 Z" stroke-miterlimit="10" stroke-width="2.814681184" stroke-dasharray=""/></g><g><g/><text fill="black" stroke="none" font-family="sans-serif" font-size="11pt" font-style="normal" font-weight="normal" text-decoration="normal" x="654.0005184600586" y="41.692465037999995" text-anchor="start" dominant-baseline="alphabetic" xml:space="preserve">Moank</text></g></g><g><path fill="white" stroke="black" paint-order="fill stroke markers" d=" M 667.20534929375 164.83476683799998 L 684.79710669375 164.83476683799998 L 684.79710669375 414.6377219179999 L 667.20534929375 414.6377219179999 L 667.20534929375 164.83476683799998" stroke-miterlimit="10" stroke-width="1.4659797833333332" stroke-dasharray=""/><path fill="white" stroke="black" paint-order="fill stroke markers" d=" M 667.20534929375 548.3350781579999 L 684.79710669375 548.3350781579999 L 684.79710669375 664.4406769979998 L 667.20534929375 664.4406769979998 L 667.20534929375 548.3350781579999" stroke-miterlimit="10" stroke-width="1.4659797833333332" stroke-dasharray=""/><path fill="white" stroke="black" paint-order="fill stroke markers" d=" M 667.20534929375 787.5829787979999 L 684.79710669375 787.5829787979999 L 684.79710669375 1037.3859338779998 L 667.20534929375 1037.3859338779998 L 667.20534929375 787.5829787979999" stroke-miterlimit="10" stroke-width="1.4659797833333332" stroke-dasharray=""/><path fill="white" stroke="black" paint-order="fill stroke markers" d=" M 667.20534929375 1086.6428545979998 L 684.79710669375 1086.6428545979998 L 684.79710669375 1336.4458096779995 L 667.20534929375 1336.4458096779995 L 667.20534929375 1086.6428545979998" stroke-miterlimit="10" stroke-width="1.4659797833333332" stroke-dasharray=""/><path fill="white" stroke="black" paint-order="fill stroke markers" d=" M 667.20534929375 1459.5881114779995 L 684.79710669375 1459.5881114779995 L 684.79710669375 1709.3910665579992 L 667.20534929375 1709.3910665579992 L 667.20534929375 1459.5881114779995" stroke-miterlimit="10" stroke-width="1.4659797833333332" stroke-dasharray=""/><g><g><rect fill="white" stroke="none" x="320.8496025525977" y="141.96548221799998" width="104.66905248855468" height="22.86928462"/></g><text fill="black" stroke="none" font-family="sans-serif" font-size="11pt" font-style="normal" font-weight="normal" text-decoration="normal" x="323.4883661625977" y="157.798063878" text-anchor="start" dominant-baseline="alphabetic" xml:space="preserve">POST: /creditor</text></g><g><path fill="none" stroke="black" paint-order="fill stroke markers" d=" M 79.1629083 164.83476683799998 L 652.7214690344167 164.83476683799998" stroke-miterlimit="10" stroke-width="1.4659797833333332" stroke-dasharray=""/><g transform="translate(667.20534929375,164.83476683799998) translate(-667.20534929375,-164.83476683799998)"><path fill="black" stroke="none" paint-order="stroke fill markers" d=" M 652.5455514604167 157.5048679213333 L 667.20534929375 164.83476683799998 L 652.5455514604167 172.16466575466666 Z"/></g></g><path fill="white" stroke="black" paint-order="fill stroke markers" d=" M 63.330326639999996 191.22240293799996 L 676.00122799375 191.22240293799996 L 691.83380965375 207.05498459799995 L 691.83380965375 231.68344495799997 L 63.330326639999996 231.68344495799997 L 63.330326639999996 191.22240293799996 M 676.00122799375 191.22240293799996 L 676.00122799375 207.05498459799995 L 691.83380965375 207.05498459799995" stroke-miterlimit="10" stroke-width="1.4659797833333332" stroke-dasharray=""/><g><text fill="black" stroke="none" font-family="sans-serif" font-size="11pt" font-style="normal" font-weight="normal" text-decoration="normal" x="218.26215237539066" y="215.850863298" text-anchor="start" dominant-baseline="alphabetic" xml:space="preserve">The partner request onboarding of a new creditor</text></g><path fill="white" stroke="black" paint-order="fill stroke markers" d=" M 598.4093048041602 273.90366271799996 L 598.4093048041602 273.90366271799996 A 15.832581659999999 15.832581659999999 0 0 1 614.2418864641602 258.07108105799995 L 737.76056952334 258.07108105799995 L 737.76056952334 258.07108105799995 A 15.832581659999999 15.832581659999999 0 0 1 753.59315118334 273.90366271799996 L 753.59315118334 282.6995414179999 L 753.59315118334 282.6995414179999 A 15.832581659999999 15.832581659999999 0 0 1 737.76056952334 298.5321230779999 L 614.2418864641602 298.5321230779999 L 614.2418864641602 298.5321230779999 A 15.832581659999999 15.832581659999999 0 0 1 598.4093048041602 282.6995414179999 L 598.4093048041602 273.90366271799996" stroke-miterlimit="10" stroke-width="1.4659797833333332" stroke-dasharray=""/><g><text fill="black" stroke="none" font-family="sans-serif" font-size="11pt" font-style="normal" font-weight="normal" text-decoration="normal" x="623.0377651641602" y="282.6995414179999" text-anchor="start" dominant-baseline="alphabetic" xml:space="preserve">Process request</text></g><g><g><rect fill="white" stroke="none" x="328.1724403821875" y="324.91975917799994" width="90.023376829375" height="22.86928462"/></g><text fill="black" stroke="none" font-family="sans-serif" font-size="11pt" font-style="normal" font-weight="normal" text-decoration="normal" x="330.81120399218753" y="340.75234083799995" text-anchor="start" dominant-baseline="alphabetic" xml:space="preserve">Creditor data</text></g><g><path fill="none" stroke="black" paint-order="fill stroke markers" d=" M 667.20534929375 347.7890437979999 L 93.64678855933333 347.7890437979999" stroke-miterlimit="10" stroke-width="1.4659797833333332" stroke-dasharray="7.0367029599999995"/><g transform="translate(79.1629083,347.7890437979999) translate(-79.1629083,-347.7890437979999)"><path fill="black" stroke="none" paint-order="stroke fill markers" d=" M 93.82270613333333 340.45914488133326 L 79.1629083 347.7890437979999 L 93.82270613333333 355.11894271466656 Z"/></g></g><path fill="white" stroke="black" paint-order="fill stroke markers" d=" M 63.330326639999996 374.1766798979999 L 676.00122799375 374.1766798979999 L 691.83380965375 390.00926155799993 L 691.83380965375 414.6377219179999 L 63.330326639999996 414.6377219179999 L 63.330326639999996 374.1766798979999 M 676.00122799375 374.1766798979999 L 676.00122799375 390.00926155799993 L 691.83380965375 390.00926155799993" stroke-miterlimit="10" stroke-width="1.4659797833333332" stroke-dasharray=""/><g><text fill="black" stroke="none" font-family="sans-serif" font-size="11pt" font-style="normal" font-weight="normal" text-decoration="normal" x="202.78974026601566" y="398.8051402579999" text-anchor="start" dominant-baseline="alphabetic" xml:space="preserve">The creditor data are not including the business terms</text></g><path fill="white" stroke="black" paint-order="fill stroke markers" d=" M 599.6297714179298 456.8579396779999 L 599.6297714179298 456.8579396779999 A 15.832581659999999 15.832581659999999 0 0 1 615.4623530779297 441.0253580179999 L 736.5401029095705 441.0253580179999 L 736.5401029095705 441.0253580179999 A 15.832581659999999 15.832581659999999 0 0 1 752.3726845695704 456.8579396779999 L 752.3726845695704 483.2455757779999 L 752.3726845695704 483.2455757779999 A 15.832581659999999 15.832581659999999 0 0 1 736.5401029095705 499.0781574379999 L 615.4623530779297 499.0781574379999 L 615.4623530779297 499.0781574379999 A 15.832581659999999 15.832581659999999 0 0 1 599.6297714179298 483.2455757779999 L 599.6297714179298 456.8579396779999" stroke-miterlimit="10" stroke-width="1.4659797833333332" stroke-dasharray=""/><g><text fill="black" stroke="none" font-family="sans-serif" font-size="11pt" font-style="normal" font-weight="normal" text-decoration="normal" x="624.2582317779297" y="465.65381837799987" text-anchor="start" dominant-baseline="alphabetic" xml:space="preserve">Manual process</text><text fill="black" stroke="none" font-family="sans-serif" font-size="11pt" font-style="normal" font-weight="normal" text-decoration="normal" x="624.2582317779297" y="483.2455757779999" text-anchor="start" dominant-baseline="alphabetic" xml:space="preserve">to set the terms</text></g><g><g><rect fill="white" stroke="none" x="318.40150532359377" y="525.4657935379998" width="109.5652469465625" height="22.86928462"/></g><text fill="black" stroke="none" font-family="sans-serif" font-size="11pt" font-style="normal" font-weight="normal" text-decoration="normal" x="321.0402689335938" y="541.2983751979998" text-anchor="start" dominant-baseline="alphabetic" xml:space="preserve">Get: /creditor/:id</text></g><g><path fill="none" stroke="black" paint-order="fill stroke markers" d=" M 79.1629083 548.3350781579999 L 652.7214690344167 548.3350781579999" stroke-miterlimit="10" stroke-width="1.4659797833333332" stroke-dasharray=""/><g transform="translate(667.20534929375,548.3350781579999) translate(-667.20534929375,-548.3350781579999)"><path fill="black" stroke="none" paint-order="stroke fill markers" d=" M 652.5455514604167 541.0051792413332 L 667.20534929375 548.3350781579999 L 652.5455514604167 555.6649770746666 Z"/></g></g><g><g><rect fill="white" stroke="none" x="328.1724403821875" y="574.7227142579999" width="90.023376829375" height="22.86928462"/></g><text fill="black" stroke="none" font-family="sans-serif" font-size="11pt" font-style="normal" font-weight="normal" text-decoration="normal" x="330.81120399218753" y="590.5552959179998" text-anchor="start" dominant-baseline="alphabetic" xml:space="preserve">Creditor data</text></g><g><path fill="none" stroke="black" paint-order="fill stroke markers" d=" M 667.20534929375 597.5919988779999 L 93.64678855933333 597.5919988779999" stroke-miterlimit="10" stroke-width="1.4659797833333332" stroke-dasharray="7.0367029599999995"/><g transform="translate(79.1629083,597.5919988779999) translate(-79.1629083,-597.5919988779999)"><path fill="black" stroke="none" paint-order="stroke fill markers" d=" M 93.82270613333333 590.2620999613332 L 79.1629083 597.5919988779999 L 93.82270613333333 604.9218977946666 Z"/></g></g><path fill="white" stroke="black" paint-order="fill stroke markers" d=" M 63.330326639999996 623.9796349779998 L 676.00122799375 623.9796349779998 L 691.83380965375 639.8122166379998 L 691.83380965375 664.4406769979998 L 63.330326639999996 664.4406769979998 L 63.330326639999996 623.9796349779998 M 676.00122799375 623.9796349779998 L 676.00122799375 639.8122166379998 L 691.83380965375 639.8122166379998" stroke-miterlimit="10" stroke-width="1.4659797833333332" stroke-dasharray=""/><g><text fill="black" stroke="none" font-family="sans-serif" font-size="11pt" font-style="normal" font-weight="normal" text-decoration="normal" x="227.64655178945316" y="648.6080953379999" text-anchor="start" dominant-baseline="alphabetic" xml:space="preserve">The creditor data including the business terms</text></g><g><g><rect fill="white" stroke="none" x="318.3979195081641" y="764.7136941779999" width="109.57241857742187" height="22.86928462"/></g><text fill="black" stroke="none" font-family="sans-serif" font-size="11pt" font-style="normal" font-weight="normal" text-decoration="normal" x="321.0366831181641" y="780.5462758379998" text-anchor="start" dominant-baseline="alphabetic" xml:space="preserve">POST: /decision</text></g><g><path fill="none" stroke="black" paint-order="fill stroke markers" d=" M 79.1629083 787.5829787979999 L 652.7214690344167 787.5829787979999" stroke-miterlimit="10" stroke-width="1.4659797833333332" stroke-dasharray=""/><g transform="translate(667.20534929375,787.5829787979999) translate(-667.20534929375,-787.5829787979999)"><path fill="black" stroke="none" paint-order="stroke fill markers" d=" M 652.5455514604167 780.2530798813332 L 667.20534929375 787.5829787979999 L 652.5455514604167 794.9128777146666 Z"/></g></g><path fill="white" stroke="black" paint-order="fill stroke markers" d=" M 63.330326639999996 813.9706148979998 L 676.00122799375 813.9706148979998 L 691.83380965375 829.8031965579997 L 691.83380965375 854.4316569179998 L 63.330326639999996 854.4316569179998 L 63.330326639999996 813.9706148979998 M 676.00122799375 813.9706148979998 L 676.00122799375 829.8031965579997 L 691.83380965375 829.8031965579997" stroke-miterlimit="10" stroke-width="1.4659797833333332" stroke-dasharray=""/><g><text fill="black" stroke="none" font-family="sans-serif" font-size="11pt" font-style="normal" font-weight="normal" text-decoration="normal" x="226.01450222890628" y="838.5990752579999" text-anchor="start" dominant-baseline="alphabetic" xml:space="preserve">The partner request a credit decision to Moank</text></g><path fill="white" stroke="black" paint-order="fill stroke markers" d=" M 598.4093048041602 896.6518746779997 L 598.4093048041602 896.6518746779997 A 15.832581659999999 15.832581659999999 0 0 1 614.2418864641602 880.8192930179997 L 737.76056952334 880.8192930179997 L 737.76056952334 880.8192930179997 A 15.832581659999999 15.832581659999999 0 0 1 753.59315118334 896.6518746779997 L 753.59315118334 905.4477533779998 L 753.59315118334 905.4477533779998 A 15.832581659999999 15.832581659999999 0 0 1 737.76056952334 921.2803350379997 L 614.2418864641602 921.2803350379997 L 614.2418864641602 921.2803350379997 A 15.832581659999999 15.832581659999999 0 0 1 598.4093048041602 905.4477533779998 L 598.4093048041602 896.6518746779997" stroke-miterlimit="10" stroke-width="1.4659797833333332" stroke-dasharray=""/><g><text fill="black" stroke="none" font-family="sans-serif" font-size="11pt" font-style="normal" font-weight="normal" text-decoration="normal" x="623.0377651641602" y="905.4477533779998" text-anchor="start" dominant-baseline="alphabetic" xml:space="preserve">Process request</text></g><g><g><rect fill="white" stroke="none" x="326.13235554332033" y="947.6679711379998" width="94.10354650710937" height="22.86928462"/></g><text fill="black" stroke="none" font-family="sans-serif" font-size="11pt" font-style="normal" font-weight="normal" text-decoration="normal" x="328.77111915332034" y="963.5005527979997" text-anchor="start" dominant-baseline="alphabetic" xml:space="preserve">Decision data</text></g><g><path fill="none" stroke="black" paint-order="fill stroke markers" d=" M 667.20534929375 970.5372557579998 L 93.64678855933333 970.5372557579998" stroke-miterlimit="10" stroke-width="1.4659797833333332" stroke-dasharray="7.0367029599999995"/><g transform="translate(79.1629083,970.5372557579998) translate(-79.1629083,-970.5372557579998)"><path fill="black" stroke="none" paint-order="stroke fill markers" d=" M 93.82270613333333 963.2073568413331 L 79.1629083 970.5372557579998 L 93.82270613333333 977.8671546746665 Z"/></g></g><path fill="white" stroke="black" paint-order="fill stroke markers" d=" M 63.330326639999996 996.9248918579998 L 676.00122799375 996.9248918579998 L 691.83380965375 1012.7574735179998 L 691.83380965375 1037.3859338779998 L 63.330326639999996 1037.3859338779998 L 63.330326639999996 996.9248918579998 M 676.00122799375 996.9248918579998 L 676.00122799375 1012.7574735179998 L 691.83380965375 1012.7574735179998" stroke-miterlimit="10" stroke-width="1.4659797833333332" stroke-dasharray=""/><g><text fill="black" stroke="none" font-family="sans-serif" font-size="11pt" font-style="normal" font-weight="normal" text-decoration="normal" x="138.41257351796878" y="1021.5533522179999" text-anchor="start" dominant-baseline="alphabetic" xml:space="preserve">The decision data inlcuding the decision status and the terms from Moank</text></g><g><g><rect fill="white" stroke="none" x="319.6183861219336" y="1063.7735699779998" width="107.13148534988281" height="22.86928462"/></g><text fill="black" stroke="none" font-family="sans-serif" font-size="11pt" font-style="normal" font-weight="normal" text-decoration="normal" x="322.2571497319336" y="1079.6061516379998" text-anchor="start" dominant-baseline="alphabetic" xml:space="preserve">POST: /account</text></g><g><path fill="none" stroke="black" paint-order="fill stroke markers" d=" M 79.1629083 1086.6428545979998 L 652.7214690344167 1086.6428545979998" stroke-miterlimit="10" stroke-width="1.4659797833333332" stroke-dasharray=""/><g transform="translate(667.20534929375,1086.6428545979998) translate(-667.20534929375,-1086.6428545979998)"><path fill="black" stroke="none" paint-order="stroke fill markers" d=" M 652.5455514604167 1079.312955681333 L 667.20534929375 1086.6428545979998 L 652.5455514604167 1093.9727535146665 Z"/></g></g><path fill="white" stroke="black" paint-order="fill stroke markers" d=" M 63.330326639999996 1113.0304906979998 L 676.00122799375 1113.0304906979998 L 691.83380965375 1128.8630723579997 L 691.83380965375 1153.4915327179997 L 63.330326639999996 1153.4915327179997 L 63.330326639999996 1113.0304906979998 M 676.00122799375 1113.0304906979998 L 676.00122799375 1128.8630723579997 L 691.83380965375 1128.8630723579997" stroke-miterlimit="10" stroke-width="1.4659797833333332" stroke-dasharray=""/><g><text fill="black" stroke="none" font-family="sans-serif" font-size="11pt" font-style="normal" font-weight="normal" text-decoration="normal" x="141.65875882070316" y="1137.6589510579995" text-anchor="start" dominant-baseline="alphabetic" xml:space="preserve">The partner request to convert a previous granted decision in an account</text></g><path fill="white" stroke="black" paint-order="fill stroke markers" d=" M 598.4093048041602 1195.7117504779997 L 598.4093048041602 1195.7117504779997 A 15.832581659999999 15.832581659999999 0 0 1 614.2418864641602 1179.8791688179997 L 737.76056952334 1179.8791688179997 L 737.76056952334 1179.8791688179997 A 15.832581659999999 15.832581659999999 0 0 1 753.59315118334 1195.7117504779997 L 753.59315118334 1204.5076291779997 L 753.59315118334 1204.5076291779997 A 15.832581659999999 15.832581659999999 0 0 1 737.76056952334 1220.3402108379996 L 614.2418864641602 1220.3402108379996 L 614.2418864641602 1220.3402108379996 A 15.832581659999999 15.832581659999999 0 0 1 598.4093048041602 1204.5076291779997 L 598.4093048041602 1195.7117504779997" stroke-miterlimit="10" stroke-width="1.4659797833333332" stroke-dasharray=""/><g><text fill="black" stroke="none" font-family="sans-serif" font-size="11pt" font-style="normal" font-weight="normal" text-decoration="normal" x="623.0377651641602" y="1204.5076291779994" text-anchor="start" dominant-baseline="alphabetic" xml:space="preserve">Process request</text></g><g><g><rect fill="white" stroke="none" x="327.75726399058595" y="1246.7278469379996" width="90.85372961257812" height="22.86928462"/></g><text fill="black" stroke="none" font-family="sans-serif" font-size="11pt" font-style="normal" font-weight="normal" text-decoration="normal" x="330.39602760058597" y="1262.5604285979996" text-anchor="start" dominant-baseline="alphabetic" xml:space="preserve">Account data</text></g><g><path fill="none" stroke="black" paint-order="fill stroke markers" d=" M 667.20534929375 1269.5971315579995 L 93.64678855933333 1269.5971315579995" stroke-miterlimit="10" stroke-width="1.4659797833333332" stroke-dasharray="7.0367029599999995"/><g transform="translate(79.1629083,1269.5971315579995) translate(-79.1629083,-1269.5971315579995)"><path fill="black" stroke="none" paint-order="stroke fill markers" d=" M 93.82270613333333 1262.2672326413328 L 79.1629083 1269.5971315579995 L 93.82270613333333 1276.9270304746663 Z"/></g></g><path fill="white" stroke="black" paint-order="fill stroke markers" d=" M 63.330326639999996 1295.9847676579996 L 676.00122799375 1295.9847676579996 L 691.83380965375 1311.8173493179995 L 691.83380965375 1336.4458096779995 L 63.330326639999996 1336.4458096779995 L 63.330326639999996 1295.9847676579996 M 676.00122799375 1295.9847676579996 L 676.00122799375 1311.8173493179995 L 691.83380965375 1311.8173493179995" stroke-miterlimit="10" stroke-width="1.4659797833333332" stroke-dasharray=""/><g><text fill="black" stroke="none" font-family="sans-serif" font-size="11pt" font-style="normal" font-weight="normal" text-decoration="normal" x="92.35672635000003" y="1320.6132280179993" text-anchor="start" dominant-baseline="alphabetic" xml:space="preserve">The account data inlcuding the business terms Moank set for the debtor and their usage</text></g><g><g><rect fill="white" stroke="none" x="328.1867454969336" y="1436.7188268579996" width="89.99476659988281" height="22.86928462"/></g><text fill="black" stroke="none" font-family="sans-serif" font-size="11pt" font-style="normal" font-weight="normal" text-decoration="normal" x="330.8255091069336" y="1452.5514085179996" text-anchor="start" dominant-baseline="alphabetic" xml:space="preserve">POST: /claim</text></g><g><path fill="none" stroke="black" paint-order="fill stroke markers" d=" M 79.1629083 1459.5881114779995 L 652.7214690344167 1459.5881114779995" stroke-miterlimit="10" stroke-width="1.4659797833333332" stroke-dasharray=""/><g transform="translate(667.20534929375,1459.5881114779995) translate(-667.20534929375,-1459.5881114779995)"><path fill="black" stroke="none" paint-order="stroke fill markers" d=" M 652.5455514604167 1452.2582125613328 L 667.20534929375 1459.5881114779995 L 652.5455514604167 1466.9180103946662 Z"/></g></g><path fill="white" stroke="black" paint-order="fill stroke markers" d=" M 63.330326639999996 1485.9757475779995 L 676.00122799375 1485.9757475779995 L 691.83380965375 1501.8083292379995 L 691.83380965375 1526.4367895979995 L 63.330326639999996 1526.4367895979995 L 63.330326639999996 1485.9757475779995 M 676.00122799375 1485.9757475779995 L 676.00122799375 1501.8083292379995 L 691.83380965375 1501.8083292379995" stroke-miterlimit="10" stroke-width="1.4659797833333332" stroke-dasharray=""/><g><text fill="black" stroke="none" font-family="sans-serif" font-size="11pt" font-style="normal" font-weight="normal" text-decoration="normal" x="123.75614041250003" y="1510.6042079379993" text-anchor="start" dominant-baseline="alphabetic" xml:space="preserve">The partner request a transfer of claim for a debtor based on its account terms</text></g><path fill="white" stroke="black" paint-order="fill stroke markers" d=" M 598.4093048041602 1568.6570073579994 L 598.4093048041602 1568.6570073579994 A 15.832581659999999 15.832581659999999 0 0 1 614.2418864641602 1552.8244256979995 L 737.76056952334 1552.8244256979995 L 737.76056952334 1552.8244256979995 A 15.832581659999999 15.832581659999999 0 0 1 753.59315118334 1568.6570073579994 L 753.59315118334 1577.4528860579994 L 753.59315118334 1577.4528860579994 A 15.832581659999999 15.832581659999999 0 0 1 737.76056952334 1593.2854677179994 L 614.2418864641602 1593.2854677179994 L 614.2418864641602 1593.2854677179994 A 15.832581659999999 15.832581659999999 0 0 1 598.4093048041602 1577.4528860579994 L 598.4093048041602 1568.6570073579994" stroke-miterlimit="10" stroke-width="1.4659797833333332" stroke-dasharray=""/><g><text fill="black" stroke="none" font-family="sans-serif" font-size="11pt" font-style="normal" font-weight="normal" text-decoration="normal" x="623.0377651641602" y="1577.4528860579992" text-anchor="start" dominant-baseline="alphabetic" xml:space="preserve">Process request</text></g><g><g><rect fill="white" stroke="none" x="335.50958332652345" y="1619.6731038179994" width="75.34909094070312" height="22.86928462"/></g><text fill="black" stroke="none" font-family="sans-serif" font-size="11pt" font-style="normal" font-weight="normal" text-decoration="normal" x="338.14834693652347" y="1635.5056854779994" text-anchor="start" dominant-baseline="alphabetic" xml:space="preserve">Claim data</text></g><g><path fill="none" stroke="black" paint-order="fill stroke markers" d=" M 667.20534929375 1642.5423884379993 L 93.64678855933333 1642.5423884379993" stroke-miterlimit="10" stroke-width="1.4659797833333332" stroke-dasharray="7.0367029599999995"/><g transform="translate(79.1629083,1642.5423884379993) translate(-79.1629083,-1642.5423884379993)"><path fill="black" stroke="none" paint-order="stroke fill markers" d=" M 93.82270613333333 1635.2124895213326 L 79.1629083 1642.5423884379993 L 93.82270613333333 1649.872287354666 Z"/></g></g><path fill="white" stroke="black" paint-order="fill stroke markers" d=" M 63.330326639999996 1668.9300245379993 L 676.00122799375 1668.9300245379993 L 691.83380965375 1684.7626061979993 L 691.83380965375 1709.3910665579992 L 63.330326639999996 1709.3910665579992 L 63.330326639999996 1668.9300245379993 M 676.00122799375 1668.9300245379993 L 676.00122799375 1684.7626061979993 L 691.83380965375 1684.7626061979993" stroke-miterlimit="10" stroke-width="1.4659797833333332" stroke-dasharray=""/><g><text fill="black" stroke="none" font-family="sans-serif" font-size="11pt" font-style="normal" font-weight="normal" text-decoration="normal" x="259.8369433299805" y="1693.558484897999" text-anchor="start" dominant-baseline="alphabetic" xml:space="preserve">The claim data processed by Moank</text></g><g><g/><path fill="none" stroke="black" paint-order="fill stroke markers" d=" M 17.591757400000006 94.46773723799998 L 762.3890298833398 94.46773723799998 L 762.3890298833398 690.8283130979999 L 17.591757400000006 690.8283130979999 L 17.591757400000006 94.46773723799998 Z" stroke-miterlimit="10" stroke-width="2.5131082" stroke-dasharray=""/><path fill="white" stroke="black" paint-order="fill stroke markers" d=" M 17.591757400000006 94.46773723799998 L 17.591757400000006 115.57784611799998 L 166.15748960722658 115.57784611799998 L 176.71254404722657 105.02279167799998 L 176.71254404722657 94.46773723799998 L 17.591757400000006 94.46773723799998" stroke-miterlimit="10" stroke-width="2.5131082" stroke-dasharray=""/><text fill="black" stroke="none" font-family="sans-serif" font-size="8.8pt" font-style="normal" font-weight="bold" text-decoration="normal" x="35.183514800000005" y="108.54114315799998" text-anchor="start" dominant-baseline="alphabetic" xml:space="preserve">Creditor onboarding</text></g><g><g/><path fill="none" stroke="black" paint-order="fill stroke markers" d=" M 17.591757400000006 717.2159491979999 L 762.3890298833398 717.2159491979999 L 762.3890298833398 1362.8334457779995 L 17.591757400000006 1362.8334457779995 L 17.591757400000006 717.2159491979999 Z" stroke-miterlimit="10" stroke-width="2.5131082" stroke-dasharray=""/><path fill="white" stroke="black" paint-order="fill stroke markers" d=" M 17.591757400000006 717.2159491979999 L 17.591757400000006 738.3260580779998 L 158.33369810332033 738.3260580779998 L 168.88875254332032 727.7710036379999 L 168.88875254332032 717.2159491979999 L 17.591757400000006 717.2159491979999" stroke-miterlimit="10" stroke-width="2.5131082" stroke-dasharray=""/><text fill="black" stroke="none" font-family="sans-serif" font-size="8.8pt" font-style="normal" font-weight="bold" text-decoration="normal" x="35.183514800000005" y="731.2893551179999" text-anchor="start" dominant-baseline="alphabetic" xml:space="preserve">Debtor onboarding</text></g><g><g/><path fill="none" stroke="black" paint-order="fill stroke markers" d=" M 17.591757400000006 1389.2210818779995 L 762.3890298833398 1389.2210818779995 L 762.3890298833398 1735.7787026579992 L 17.591757400000006 1735.7787026579992 L 17.591757400000006 1389.2210818779995 Z" stroke-miterlimit="10" stroke-width="2.5131082" stroke-dasharray=""/><path fill="white" stroke="black" paint-order="fill stroke markers" d=" M 17.591757400000006 1389.2210818779995 L 17.591757400000006 1410.3311907579996 L 132.32497007597658 1410.3311907579996 L 142.88002451597657 1399.7761363179995 L 142.88002451597657 1389.2210818779995 L 17.591757400000006 1389.2210818779995" stroke-miterlimit="10" stroke-width="2.5131082" stroke-dasharray=""/><text fill="black" stroke="none" font-family="sans-serif" font-size="8.8pt" font-style="normal" font-weight="bold" text-decoration="normal" x="35.183514800000005" y="1403.2944877979996" text-anchor="start" dominant-baseline="alphabetic" xml:space="preserve">Transfer claim</text></g></g><g/><g/></g></svg>