<svg version="1.1" xmlns="http://www.w3.org/2000/svg" xmlns:xlink="http://www.w3.org/1999/xlink" width="743" height="727"><desc>participant%20Partner%0Aparticipant%20Moank%0A%0APartner-%3EMoank%3A%20POST%3A%20%2Fdecision%0Aactivate%20Moank%0Anote%20over%20Partner%2C%20Moank%3A%20The%20partner%20request%20a%20credit%20decision%20to%20Moank%0Arbox%20over%20Moank%3A%20Process%20request%0AMoank--%3EPartner%3A%20Decision%20data%0Anote%20over%20Moank%2CPartner%3A%20The%20decision%20data%20inlcuding%20the%20decision%20status%20and%20the%20terms%20from%20Moank%0Adeactivate%20Moank%0A%0APartner-%3EMoank%3A%20POST%3A%20%2Faccount%0Aactivate%20Moank%0Anote%20over%20Partner%2C%20Moank%3A%20The%20partner%20request%20to%20convert%20a%20previous%20granted%20decision%20in%20an%20account%0Arbox%20over%20Moank%3A%20Process%20request%0AMoank--%3EPartner%3A%20Account%20data%0Anote%20over%20Moank%2CPartner%3AThe%20account%20data%20inlcuding%20the%20business%20terms%20Moank%20set%20for%20the%20debtor%20and%20their%20usage%0Adeactivate%20Moank%0A</desc><defs/><g><g/><g/><g/><g/><g/><g/><g/><g/><g/><g/><g><rect fill="white" stroke="none" x="0" y="0" width="743" height="727"/></g><g/><g><path fill="none" stroke="black" paint-order="fill stroke markers" d=" M 51.9201440361289 59.284222437999986 L 51.9201440361289 727.7710036379999" stroke-miterlimit="10" stroke-width="1.4659797833333332" stroke-dasharray="13.532121076923076,5.863919133333333"/><path fill="none" stroke="black" paint-order="fill stroke markers" d=" M 648.7584637298789 59.284222437999986 L 648.7584637298789 727.7710036379999" stroke-miterlimit="10" stroke-width="1.4659797833333332" stroke-dasharray="13.532121076923076,5.863919133333333"/></g><g><path fill="none" stroke="none"/><g><path fill="white" stroke="black" paint-order="fill stroke markers" d=" M 8.795878699999996 11.786477457999997 L 95.0444093722578 11.786477457999997 L 95.0444093722578 59.284222437999986 L 8.795878699999996 59.284222437999986 L 8.795878699999996 11.786477457999997 Z" stroke-miterlimit="10" stroke-width="2.814681184" stroke-dasharray=""/></g><g><g/><text fill="black" stroke="none" font-family="sans-serif" font-size="11pt" font-style="normal" font-weight="normal" text-decoration="normal" x="27.882935478999997" y="41.692465037999995" text-anchor="start" dominant-baseline="alphabetic" xml:space="preserve">Partner</text></g><path fill="none" stroke="none"/><g><path fill="white" stroke="black" paint-order="fill stroke markers" d=" M 607.6706974171875 11.786477457999997 L 689.8462300425704 11.786477457999997 L 689.8462300425704 59.284222437999986 L 607.6706974171875 59.284222437999986 L 607.6706974171875 11.786477457999997 Z" stroke-miterlimit="10" stroke-width="2.814681184" stroke-dasharray=""/></g><g><g/><text fill="black" stroke="none" font-family="sans-serif" font-size="11pt" font-style="normal" font-weight="normal" text-decoration="normal" x="626.7577541961875" y="41.692465037999995" text-anchor="start" dominant-baseline="alphabetic" xml:space="preserve">Moank</text></g></g><g><path fill="white" stroke="black" paint-order="fill stroke markers" d=" M 639.9625850298789 117.33702185799999 L 657.554342429879 117.33702185799999 L 657.554342429879 367.13997693799996 L 639.9625850298789 367.13997693799996 L 639.9625850298789 117.33702185799999" stroke-miterlimit="10" stroke-width="1.4659797833333332" stroke-dasharray=""/><path fill="white" stroke="black" paint-order="fill stroke markers" d=" M 639.9625850298789 416.39689765799994 L 657.554342429879 416.39689765799994 L 657.554342429879 666.1998527379999 L 639.9625850298789 666.1998527379999 L 639.9625850298789 416.39689765799994" stroke-miterlimit="10" stroke-width="1.4659797833333332" stroke-dasharray=""/><g><g><rect fill="white" stroke="none" x="291.155155244293" y="94.46773723799998" width="109.57241857742187" height="22.86928462"/></g><text fill="black" stroke="none" font-family="sans-serif" font-size="11pt" font-style="normal" font-weight="normal" text-decoration="normal" x="293.793918854293" y="110.30031889799997" text-anchor="start" dominant-baseline="alphabetic" xml:space="preserve">POST: /decision</text></g><g><path fill="none" stroke="black" paint-order="fill stroke markers" d=" M 51.9201440361289 117.33702185799999 L 625.4787047705456 117.33702185799999" stroke-miterlimit="10" stroke-width="1.4659797833333332" stroke-dasharray=""/><g transform="translate(639.9625850298789,117.33702185799999) translate(-639.9625850298789,-117.33702185799999)"><path fill="black" stroke="none" paint-order="stroke fill markers" d=" M 625.3027871965456 110.00712294133332 L 639.9625850298789 117.33702185799999 L 625.3027871965456 124.66692077466665 Z"/></g></g><path fill="white" stroke="black" paint-order="fill stroke markers" d=" M 36.0875623761289 143.72465795799997 L 648.7584637298789 143.72465795799997 L 664.5910453898789 159.55723961799995 L 664.5910453898789 184.18569997799997 L 36.0875623761289 184.18569997799997 L 36.0875623761289 143.72465795799997 M 648.7584637298789 143.72465795799997 L 648.7584637298789 159.55723961799995 L 664.5910453898789 159.55723961799995" stroke-miterlimit="10" stroke-width="1.4659797833333332" stroke-dasharray=""/><g><text fill="black" stroke="none" font-family="sans-serif" font-size="11pt" font-style="normal" font-weight="normal" text-decoration="normal" x="198.7717379650352" y="168.353118318" text-anchor="start" dominant-baseline="alphabetic" xml:space="preserve">The partner request a credit decision to Moank</text></g><path fill="white" stroke="black" paint-order="fill stroke markers" d=" M 571.1665405402891 226.40591773799994 L 571.1665405402891 226.40591773799994 A 15.832581659999999 15.832581659999999 0 0 1 586.9991222002891 210.57333607799995 L 710.5178052594689 210.57333607799995 L 710.5178052594689 210.57333607799995 A 15.832581659999999 15.832581659999999 0 0 1 726.3503869194689 226.40591773799994 L 726.3503869194689 235.20179643799997 L 726.3503869194689 235.20179643799997 A 15.832581659999999 15.832581659999999 0 0 1 710.5178052594689 251.03437809799996 L 586.9991222002891 251.03437809799996 L 586.9991222002891 251.03437809799996 A 15.832581659999999 15.832581659999999 0 0 1 571.1665405402891 235.20179643799997 L 571.1665405402891 226.40591773799994" stroke-miterlimit="10" stroke-width="1.4659797833333332" stroke-dasharray=""/><g><text fill="black" stroke="none" font-family="sans-serif" font-size="11pt" font-style="normal" font-weight="normal" text-decoration="normal" x="595.7950009002891" y="235.201796438" text-anchor="start" dominant-baseline="alphabetic" xml:space="preserve">Process request</text></g><g><g><rect fill="white" stroke="none" x="298.88959127944923" y="277.422014198" width="94.10354650710937" height="22.86928462"/></g><text fill="black" stroke="none" font-family="sans-serif" font-size="11pt" font-style="normal" font-weight="normal" text-decoration="normal" x="301.52835488944925" y="293.254595858" text-anchor="start" dominant-baseline="alphabetic" xml:space="preserve">Decision data</text></g><g><path fill="none" stroke="black" paint-order="fill stroke markers" d=" M 639.9625850298789 300.291298818 L 66.40402429546224 300.291298818" stroke-miterlimit="10" stroke-width="1.4659797833333332" stroke-dasharray="7.0367029599999995"/><g transform="translate(51.9201440361289,300.291298818) translate(-51.9201440361289,-300.291298818)"><path fill="black" stroke="none" paint-order="stroke fill markers" d=" M 66.57994186946223 292.9613999013333 L 51.9201440361289 300.291298818 L 66.57994186946223 307.6211977346666 Z"/></g></g><path fill="white" stroke="black" paint-order="fill stroke markers" d=" M 36.0875623761289 326.678934918 L 648.7584637298789 326.678934918 L 664.5910453898789 342.511516578 L 664.5910453898789 367.13997693799996 L 36.0875623761289 367.13997693799996 L 36.0875623761289 326.678934918 M 648.7584637298789 326.678934918 L 648.7584637298789 342.511516578 L 664.5910453898789 342.511516578" stroke-miterlimit="10" stroke-width="1.4659797833333332" stroke-dasharray=""/><g><text fill="black" stroke="none" font-family="sans-serif" font-size="11pt" font-style="normal" font-weight="normal" text-decoration="normal" x="111.16980925409769" y="351.30739527799994" text-anchor="start" dominant-baseline="alphabetic" xml:space="preserve">The decision data inlcuding the decision status and the terms from Moank</text></g><g><g><rect fill="white" stroke="none" x="292.3756218580625" y="393.52761303799997" width="107.13148534988281" height="22.86928462"/></g><text fill="black" stroke="none" font-family="sans-serif" font-size="11pt" font-style="normal" font-weight="normal" text-decoration="normal" x="295.0143854680625" y="409.360194698" text-anchor="start" dominant-baseline="alphabetic" xml:space="preserve">POST: /account</text></g><g><path fill="none" stroke="black" paint-order="fill stroke markers" d=" M 51.9201440361289 416.39689765799994 L 625.4787047705456 416.39689765799994" stroke-miterlimit="10" stroke-width="1.4659797833333332" stroke-dasharray=""/><g transform="translate(639.9625850298789,416.39689765799994) translate(-639.9625850298789,-416.39689765799994)"><path fill="black" stroke="none" paint-order="stroke fill markers" d=" M 625.3027871965456 409.0669987413333 L 639.9625850298789 416.39689765799994 L 625.3027871965456 423.7267965746666 Z"/></g></g><path fill="white" stroke="black" paint-order="fill stroke markers" d=" M 36.0875623761289 442.78453375799995 L 648.7584637298789 442.78453375799995 L 664.5910453898789 458.61711541799997 L 664.5910453898789 483.24557577799993 L 36.0875623761289 483.24557577799993 L 36.0875623761289 442.78453375799995 M 648.7584637298789 442.78453375799995 L 648.7584637298789 458.61711541799997 L 664.5910453898789 458.61711541799997" stroke-miterlimit="10" stroke-width="1.4659797833333332" stroke-dasharray=""/><g><text fill="black" stroke="none" font-family="sans-serif" font-size="11pt" font-style="normal" font-weight="normal" text-decoration="normal" x="114.41599455683206" y="467.4129941179999" text-anchor="start" dominant-baseline="alphabetic" xml:space="preserve">The partner request to convert a previous granted decision in an account</text></g><path fill="white" stroke="black" paint-order="fill stroke markers" d=" M 571.1665405402891 525.465793538 L 571.1665405402891 525.465793538 A 15.832581659999999 15.832581659999999 0 0 1 586.9991222002891 509.63321187799994 L 710.5178052594689 509.63321187799994 L 710.5178052594689 509.63321187799994 A 15.832581659999999 15.832581659999999 0 0 1 726.3503869194689 525.465793538 L 726.3503869194689 534.261672238 L 726.3503869194689 534.261672238 A 15.832581659999999 15.832581659999999 0 0 1 710.5178052594689 550.0942538979999 L 586.9991222002891 550.0942538979999 L 586.9991222002891 550.0942538979999 A 15.832581659999999 15.832581659999999 0 0 1 571.1665405402891 534.261672238 L 571.1665405402891 525.465793538" stroke-miterlimit="10" stroke-width="1.4659797833333332" stroke-dasharray=""/><g><text fill="black" stroke="none" font-family="sans-serif" font-size="11pt" font-style="normal" font-weight="normal" text-decoration="normal" x="595.7950009002891" y="534.261672238" text-anchor="start" dominant-baseline="alphabetic" xml:space="preserve">Process request</text></g><g><g><rect fill="white" stroke="none" x="300.51449972671486" y="576.4818899979999" width="90.85372961257812" height="22.86928462"/></g><text fill="black" stroke="none" font-family="sans-serif" font-size="11pt" font-style="normal" font-weight="normal" text-decoration="normal" x="303.1532633367149" y="592.3144716579999" text-anchor="start" dominant-baseline="alphabetic" xml:space="preserve">Account data</text></g><g><path fill="none" stroke="black" paint-order="fill stroke markers" d=" M 639.9625850298789 599.351174618 L 66.40402429546224 599.351174618" stroke-miterlimit="10" stroke-width="1.4659797833333332" stroke-dasharray="7.0367029599999995"/><g transform="translate(51.9201440361289,599.351174618) translate(-51.9201440361289,-599.351174618)"><path fill="black" stroke="none" paint-order="stroke fill markers" d=" M 66.57994186946223 592.0212757013333 L 51.9201440361289 599.351174618 L 66.57994186946223 606.6810735346667 Z"/></g></g><path fill="white" stroke="black" paint-order="fill stroke markers" d=" M 36.0875623761289 625.7388107179999 L 648.7584637298789 625.7388107179999 L 664.5910453898789 641.5713923779998 L 664.5910453898789 666.1998527379999 L 36.0875623761289 666.1998527379999 L 36.0875623761289 625.7388107179999 M 648.7584637298789 625.7388107179999 L 648.7584637298789 641.5713923779998 L 664.5910453898789 641.5713923779998" stroke-miterlimit="10" stroke-width="1.4659797833333332" stroke-dasharray=""/><g><text fill="black" stroke="none" font-family="sans-serif" font-size="11pt" font-style="normal" font-weight="normal" text-decoration="normal" x="65.11396208612894" y="650.3672710779999" text-anchor="start" dominant-baseline="alphabetic" xml:space="preserve">The account data inlcuding the business terms Moank set for the debtor and their usage</text></g></g><g/><g/></g></svg>