<svg version="1.1" xmlns="http://www.w3.org/2000/svg" xmlns:xlink="http://www.w3.org/1999/xlink" width="681" height="428"><desc>participant%20Partner%0Aparticipant%20Moank%0A%0APartner-%3EMoank%3A%20POST%3A%20%2Fclaim%0Aactivate%20Moank%0Anote%20over%20Partner%2C%20Moank%3A%20The%20partner%20request%20a%20transfer%20of%20claim%20for%20a%20debtor%20based%20on%20its%20account%20terms%0Arbox%20over%20Moank%3A%20Process%20request%0AMoank--%3EPartner%3A%20Claim%20data%0Anote%20over%20Moank%2CPartner%3A%20The%20claim%20data%20processed%20by%20Moank%0Adeactivate%20Moank%0A</desc><defs/><g><g/><g/><g/><g/><g/><g><rect fill="white" stroke="none" x="0" y="0" width="681" height="428"/></g><g/><g><path fill="none" stroke="black" paint-order="fill stroke markers" d=" M 51.9201440361289 59.284222437999986 L 51.9201440361289 428.7111278379999" stroke-miterlimit="10" stroke-width="1.4659797833333332" stroke-dasharray="13.532121076923076,5.863919133333333"/><path fill="none" stroke="black" paint-order="fill stroke markers" d=" M 585.9596356048789 59.284222437999986 L 585.9596356048789 428.7111278379999" stroke-miterlimit="10" stroke-width="1.4659797833333332" stroke-dasharray="13.532121076923076,5.863919133333333"/></g><g><path fill="none" stroke="none"/><g><path fill="white" stroke="black" paint-order="fill stroke markers" d=" M 8.795878699999996 11.786477457999997 L 95.0444093722578 11.786477457999997 L 95.0444093722578 59.284222437999986 L 8.795878699999996 59.284222437999986 L 8.795878699999996 11.786477457999997 Z" stroke-miterlimit="10" stroke-width="2.814681184" stroke-dasharray=""/></g><g><g/><text fill="black" stroke="none" font-family="sans-serif" font-size="11pt" font-style="normal" font-weight="normal" text-decoration="normal" x="27.882935478999997" y="41.692465037999995" text-anchor="start" dominant-baseline="alphabetic" xml:space="preserve">Partner</text></g><path fill="none" stroke="none"/><g><path fill="white" stroke="black" paint-order="fill stroke markers" d=" M 544.8718692921875 11.786477457999997 L 627.0474019175704 11.786477457999997 L 627.0474019175704 59.284222437999986 L 544.8718692921875 59.284222437999986 L 544.8718692921875 11.786477457999997 Z" stroke-miterlimit="10" stroke-width="2.814681184" stroke-dasharray=""/></g><g><g/><text fill="black" stroke="none" font-family="sans-serif" font-size="11pt" font-style="normal" font-weight="normal" text-decoration="normal" x="563.9589260711875" y="41.692465037999995" text-anchor="start" dominant-baseline="alphabetic" xml:space="preserve">Moank</text></g></g><g><path fill="white" stroke="black" paint-order="fill stroke markers" d=" M 577.1637569048789 117.33702185799999 L 594.755514304879 117.33702185799999 L 594.755514304879 367.13997693799996 L 577.1637569048789 367.13997693799996 L 577.1637569048789 117.33702185799999" stroke-miterlimit="10" stroke-width="1.4659797833333332" stroke-dasharray=""/><g><g><rect fill="white" stroke="none" x="269.5445671705625" y="94.46773723799998" width="89.99476659988281" height="22.86928462"/></g><text fill="black" stroke="none" font-family="sans-serif" font-size="11pt" font-style="normal" font-weight="normal" text-decoration="normal" x="272.1833307805625" y="110.30031889799997" text-anchor="start" dominant-baseline="alphabetic" xml:space="preserve">POST: /claim</text></g><g><path fill="none" stroke="black" paint-order="fill stroke markers" d=" M 51.9201440361289 117.33702185799999 L 562.6798766455456 117.33702185799999" stroke-miterlimit="10" stroke-width="1.4659797833333332" stroke-dasharray=""/><g transform="translate(577.1637569048789,117.33702185799999) translate(-577.1637569048789,-117.33702185799999)"><path fill="black" stroke="none" paint-order="stroke fill markers" d=" M 562.5039590715456 110.00712294133332 L 577.1637569048789 117.33702185799999 L 562.5039590715456 124.66692077466665 Z"/></g></g><path fill="white" stroke="black" paint-order="fill stroke markers" d=" M 36.0875623761289 143.72465795799997 L 585.9596356048789 143.72465795799997 L 601.7922172648789 159.55723961799995 L 601.7922172648789 184.18569997799997 L 36.0875623761289 184.18569997799997 L 36.0875623761289 143.72465795799997 M 585.9596356048789 143.72465795799997 L 585.9596356048789 159.55723961799995 L 601.7922172648789 159.55723961799995" stroke-miterlimit="10" stroke-width="1.4659797833333332" stroke-dasharray=""/><g><text fill="black" stroke="none" font-family="sans-serif" font-size="11pt" font-style="normal" font-weight="normal" text-decoration="normal" x="65.11396208612894" y="168.353118318" text-anchor="start" dominant-baseline="alphabetic" xml:space="preserve">The partner request a transfer of claim for a debtor based on its account terms</text></g><path fill="white" stroke="black" paint-order="fill stroke markers" d=" M 508.3677124152891 226.40591773799994 L 508.3677124152891 226.40591773799994 A 15.832581659999999 15.832581659999999 0 0 1 524.2002940752891 210.57333607799995 L 647.7189771344688 210.57333607799995 L 647.7189771344688 210.57333607799995 A 15.832581659999999 15.832581659999999 0 0 1 663.5515587944687 226.40591773799994 L 663.5515587944687 235.20179643799997 L 663.5515587944687 235.20179643799997 A 15.832581659999999 15.832581659999999 0 0 1 647.7189771344688 251.03437809799996 L 524.2002940752891 251.03437809799996 L 524.2002940752891 251.03437809799996 A 15.832581659999999 15.832581659999999 0 0 1 508.3677124152891 235.20179643799997 L 508.3677124152891 226.40591773799994" stroke-miterlimit="10" stroke-width="1.4659797833333332" stroke-dasharray=""/><g><text fill="black" stroke="none" font-family="sans-serif" font-size="11pt" font-style="normal" font-weight="normal" text-decoration="normal" x="532.9961727752891" y="235.201796438" text-anchor="start" dominant-baseline="alphabetic" xml:space="preserve">Process request</text></g><g><g><rect fill="white" stroke="none" x="276.86740500015236" y="277.422014198" width="75.34909094070312" height="22.86928462"/></g><text fill="black" stroke="none" font-family="sans-serif" font-size="11pt" font-style="normal" font-weight="normal" text-decoration="normal" x="279.5061686101524" y="293.254595858" text-anchor="start" dominant-baseline="alphabetic" xml:space="preserve">Claim data</text></g><g><path fill="none" stroke="black" paint-order="fill stroke markers" d=" M 577.1637569048789 300.291298818 L 66.40402429546224 300.291298818" stroke-miterlimit="10" stroke-width="1.4659797833333332" stroke-dasharray="7.0367029599999995"/><g transform="translate(51.9201440361289,300.291298818) translate(-51.9201440361289,-300.291298818)"><path fill="black" stroke="none" paint-order="stroke fill markers" d=" M 66.57994186946223 292.9613999013333 L 51.9201440361289 300.291298818 L 66.57994186946223 307.6211977346666 Z"/></g></g><path fill="white" stroke="black" paint-order="fill stroke markers" d=" M 36.0875623761289 326.678934918 L 585.9596356048789 326.678934918 L 601.7922172648789 342.511516578 L 601.7922172648789 367.13997693799996 L 36.0875623761289 367.13997693799996 L 36.0875623761289 326.678934918 M 585.9596356048789 326.678934918 L 585.9596356048789 342.511516578 L 601.7922172648789 342.511516578" stroke-miterlimit="10" stroke-width="1.4659797833333332" stroke-dasharray=""/><g><text fill="black" stroke="none" font-family="sans-serif" font-size="11pt" font-style="normal" font-weight="normal" text-decoration="normal" x="201.1947650036094" y="351.30739527799994" text-anchor="start" dominant-baseline="alphabetic" xml:space="preserve">The claim data processed by Moank</text></g></g><g/><g/></g></svg>