<svg width="123" height="25" viewBox="0 0 123 25" fill="none" xmlns="http://www.w3.org/2000/svg">
<path d="M0.431641 1.15217H5.13564L11.6316 19.3282L18.3196 1.15217H22.8636V24.0002H19.3116V7.39217L13.0396 24.0002H9.96764L3.91964 7.42417V24.0002H0.431641V1.15217Z" fill="#2F3131"/>
<path d="M37.9849 24.5762C36.3422 24.5762 34.8596 24.3095 33.5369 23.7762C32.2356 23.2215 31.1156 22.4322 30.1769 21.4082C29.2382 20.3842 28.5129 19.1362 28.0009 17.6642C27.5102 16.1708 27.2649 14.4855 27.2649 12.6082C27.2649 10.7308 27.5209 9.04551 28.0329 7.55217C28.5449 6.05884 29.2702 4.80017 30.2089 3.77617C31.1476 2.73084 32.2782 1.94151 33.6009 1.40817C34.9236 0.853505 36.3849 0.576172 37.9849 0.576172C39.6062 0.576172 41.0782 0.853505 42.4009 1.40817C43.7236 1.94151 44.8436 2.72017 45.7609 3.74417C46.6782 4.76817 47.3822 6.02684 47.8729 7.52017C48.3849 8.99217 48.6409 10.6668 48.6409 12.5442C48.6409 14.4428 48.3956 16.1388 47.9049 17.6322C47.4142 19.1042 46.7102 20.3628 45.7929 21.4082C44.8756 22.4322 43.7556 23.2215 42.4329 23.7762C41.1316 24.3095 39.6489 24.5762 37.9849 24.5762ZM37.9529 21.2482C40.1502 21.2482 41.8142 20.4802 42.9449 18.9442C44.0756 17.3868 44.6409 15.2642 44.6409 12.5762C44.6409 11.2322 44.4916 10.0268 44.1929 8.96017C43.9156 7.89351 43.4996 6.98684 42.9449 6.24017C42.3902 5.49351 41.6969 4.91751 40.8649 4.51217C40.0329 4.10684 39.0622 3.90417 37.9529 3.90417C36.8436 3.90417 35.8729 4.10684 35.0409 4.51217C34.2089 4.91751 33.5049 5.49351 32.9289 6.24017C32.3742 6.98684 31.9582 7.89351 31.6809 8.96017C31.4036 10.0268 31.2649 11.2322 31.2649 12.5762C31.2649 15.2642 31.8196 17.3868 32.9289 18.9442C34.0596 20.4802 35.7342 21.2482 37.9529 21.2482Z" fill="#2F3131"/>
<path d="M58.4144 1.15217H62.2544L70.9584 24.0002H66.8304L64.6864 18.1762H55.8224L53.7104 24.0002H49.7104L58.4144 1.15217ZM63.6304 14.9442L60.2384 5.53617L56.8784 14.9442H63.6304Z" fill="#2F3131"/>
<path d="M74.0479 1.15217H77.6319L88.1279 17.6642V1.15217H91.9039V24.0002H88.3199L77.7919 7.55217V24.0002H74.0479V1.15217Z" fill="#2F3131"/>
<path d="M97.0866 1.15217H100.959V11.2002L110.527 1.15217H114.815L106.943 9.72817L115.679 24.0002H111.295L104.223 12.2242L100.959 15.5202V24.0002H97.0866V1.15217Z" fill="#2F3131"/>
<path d="M122.419 19.5522V24.0002H118.547V19.5522H122.419Z" fill="#2F3131"/>
</svg>
